<svg width="20" height="21" viewBox="0 0 20 21" fill="none" xmlns="http://www.w3.org/2000/svg">
<path d="M12.1314 13.2325L11.7519 13.632C11.7519 13.632 10.8497 14.5818 8.38724 11.9893C5.92473 9.39674 6.82689 8.44694 6.82689 8.44694L7.0659 8.1953C7.6547 7.57541 7.7102 6.58018 7.1965 5.85363L6.14568 4.36739C5.50987 3.46812 4.28127 3.34933 3.55251 4.11658L2.24451 5.49366C1.88316 5.87409 1.64101 6.36725 1.67038 6.91432C1.7455 8.31392 2.34356 11.3252 5.68077 14.8387C9.21975 18.5646 12.5403 18.7126 13.8982 18.5786C14.3277 18.5362 14.7012 18.3046 15.0022 17.9877L16.186 16.7414C16.9851 15.9001 16.7598 14.4578 15.7374 13.8694L14.1453 12.953C13.474 12.5666 12.6561 12.6801 12.1314 13.2325Z" fill="white"/>
<path d="M14.1654 10.2786C16.4666 10.2786 18.332 8.41317 18.332 6.11198C18.332 3.81079 16.4666 1.94531 14.1654 1.94531C11.8642 1.94531 9.9987 3.81079 9.9987 6.11198C9.9987 6.77851 10.1552 7.40849 10.4335 7.96718C10.5074 8.11564 10.532 8.28534 10.4892 8.44557L10.241 9.37308C10.1333 9.77572 10.5016 10.1441 10.9043 10.0363L11.8318 9.78818C11.992 9.74531 12.1617 9.76992 12.3102 9.84387C12.8688 10.1221 13.4988 10.2786 14.1654 10.2786Z" fill="white"/>
</svg>
