<svg width="20" height="21" viewBox="0 0 20 21" fill="none" xmlns="http://www.w3.org/2000/svg">
<g id="Icon">
<path id="Vector" d="M11.6654 11.3385H13.7487L14.582 8.00521H11.6654V6.33854C11.6654 5.96076 11.6876 5.68854 11.732 5.52187C11.7987 5.25521 11.9431 5.04965 12.1654 4.90521C12.4209 4.74965 12.8098 4.67187 13.332 4.67187H14.582V1.87187C14.3931 1.84965 14.0987 1.82743 13.6987 1.80521C13.1765 1.77187 12.6765 1.75521 12.1987 1.75521C11.4431 1.75521 10.7737 1.90799 10.1904 2.21354C9.60703 2.5191 9.15425 2.95521 8.83203 3.52187C8.4987 4.13299 8.33203 4.84965 8.33203 5.67187V8.00521H5.83203V11.3385H8.33203V18.4219H11.6654V11.3385Z" fill="white"/>
</g>
</svg>
