<svg width="35" height="50" viewBox="0 0 35 50" fill="none" xmlns="http://www.w3.org/2000/svg">
<g clip-path="url(#clip0_1651_2481)">
<path d="M16.6487 24.4136C16.5907 22.7515 16.0284 21.315 14.962 20.1041C14.0964 19.1422 12.9662 18.3976 11.5717 17.8702C10.5001 17.4276 9.48317 17.1751 8.52088 17.1126L16.3259 8.29515C16.4575 9.31467 16.7825 10.3754 17.3011 11.4775C17.9917 12.9255 18.8801 14.0786 19.9662 14.9368C21.3158 16.0098 22.9027 16.5464 24.7269 16.5467C25.0876 22.2948 25.3028 26.6237 25.3724 29.5336C25.4153 31.6763 25.3876 32.7174 25.2895 32.6568C23.3671 32.596 21.7554 33.1803 20.4542 34.4099C19.3997 35.3748 18.5813 36.6835 17.999 38.336C17.5619 39.5674 17.3161 40.7761 17.2615 41.9622L9.06672 32.7433C10.0201 32.55 11.0147 32.1632 12.0505 31.583C13.4016 30.8637 14.4748 29.9782 15.2701 28.9263C16.2472 27.58 16.7067 26.0758 16.6487 24.4136ZM9.8707 48.893C8.49623 48.941 7.20509 48.626 5.99729 47.9481C4.78949 47.2702 3.82048 46.328 3.09027 45.1213C2.36006 43.9147 1.96928 42.5762 1.91793 41.1058C1.86658 39.6355 2.16304 38.273 2.8073 37.0183C3.45157 35.7637 4.35221 34.7481 5.50922 33.9716C6.66623 33.1952 7.93198 32.7829 9.30645 32.7349C10.6809 32.6869 11.9644 33.0102 13.1567 33.7046C14.3491 34.399 15.3104 35.3496 16.0406 36.5562C16.7708 37.7628 17.1616 39.1013 17.213 40.5717C17.2643 42.0421 16.9678 43.4046 16.3236 44.6592C15.6793 45.9138 14.7864 46.9211 13.6448 47.6811C12.5032 48.441 11.2452 48.845 9.8707 48.893ZM25.9607 32.6334C24.5863 32.6814 23.2951 32.3664 22.0873 31.6885C20.8795 31.0106 19.9105 30.0684 19.1803 28.8617C18.4501 27.6551 18.0593 26.3166 18.008 24.8462C17.9566 23.3759 18.2531 22.0134 18.8973 20.7587C19.5416 19.5041 20.4425 18.4965 21.6001 17.736C22.7577 16.9755 24.0237 16.5713 25.3982 16.5233C26.7726 16.4753 28.0638 16.7902 29.2716 17.4681C30.4794 18.146 31.4484 19.0883 32.1786 20.2949C32.9088 21.5016 33.2996 22.8401 33.3509 24.3104C33.4023 25.7808 33.1058 27.1433 32.4616 28.3979C31.8173 29.6526 30.9164 30.6601 29.7588 31.4206C28.6012 32.1812 27.3352 32.5854 25.9607 32.6334ZM9.19214 17.0892C7.81767 17.1372 6.52625 16.8143 5.31789 16.1204C4.10953 15.4265 3.14024 14.4762 2.41003 13.2696C1.67982 12.063 1.28904 10.7245 1.23769 9.25409C1.18634 7.78372 1.4828 6.42122 2.12706 5.16659C2.77133 3.91196 3.67224 2.90439 4.82982 2.14389C5.98739 1.38339 7.25341 0.979135 8.62789 0.931137C10.0024 0.88314 11.2935 1.19809 12.5013 1.87599C13.7091 2.55389 14.6781 3.49616 15.4083 4.7028C16.1385 5.90943 16.5293 7.24794 16.5807 8.7183C16.632 10.1887 16.3356 11.5512 15.6913 12.8058C15.047 14.0604 14.1464 15.076 12.9894 15.8525C11.8324 16.629 10.5666 17.0412 9.19214 17.0892Z" fill="white"/>
</g>
<defs>
<clipPath id="clip0_1651_2481">
<rect width="32" height="47.9815" fill="white" transform="matrix(0.999391 -0.0348995 -0.0348995 -0.999391 2.19922 49.1648)"/>
</clipPath>
</defs>
</svg>
