<svg width="151" height="51" viewBox="0 0 151 51" fill="none" xmlns="http://www.w3.org/2000/svg">
<g id="Logo Mobifone 1">
<path id="Vector" d="M129.465 24.0689C129.281 23.2689 128.949 22.5939 128.452 22.0098V22.0053C127.767 21.2303 126.897 20.7143 125.787 20.428C124.764 20.1553 123.252 20.0234 121.181 20.0234C118.914 20.0234 117.461 20.2893 116.426 20.6848C115.965 20.8553 115.465 21.2212 115.095 21.5734V20.803H112.168V36.3393H115.106V26.4689C115.106 23.8962 117.703 22.878 120.295 22.878H121.59C124.183 22.878 126.802 23.8962 126.802 26.4689V36.3393H129.709V27.8643C129.709 25.9416 129.634 24.7712 129.469 24.0689" fill="#ED1C24"/>
<path id="Vector_2" d="M79.9727 19.9746H82.8995C82.9334 18.3837 82.9854 16.8678 83.1571 16.1746C83.2927 15.4882 83.6001 14.8996 84.0431 14.4518C84.5539 13.8337 85.2658 13.3859 86.1834 13.0768C87.0671 12.8359 88.5746 12.6291 90.5454 12.5928L93.2937 12.5859L90.6471 15.2018C90.5567 15.2018 89.621 15.2041 89.5306 15.2041C85.6365 15.2041 85.9099 17.7314 85.9099 19.9723H92.7558L89.9872 22.8246H85.8421L85.858 36.3109H82.9017V22.8246H79.9749V19.9723L79.9727 19.9746Z" fill="#ED1C24"/>
<path id="Vector_3" d="M79.9698 14.8672H77.043V17.9104H79.9698V14.8672Z" fill="#ED1C24"/>
<path id="Vector_4" d="M54.4298 28.1921C54.4298 30.0421 54.2174 31.5557 53.7925 32.6921C53.3653 33.8739 51.9143 36.5467 44.8357 36.5467C37.7571 36.5467 36.3061 33.8739 35.8834 32.6921C35.4608 31.5557 35.2461 30.0421 35.2461 28.1921C35.2461 26.3421 35.4608 24.8239 35.8834 23.6898C36.3083 22.508 37.7638 19.8398 44.8357 19.8398C51.9076 19.8398 53.3653 22.508 53.7925 23.6898C54.2174 24.8239 54.4298 26.3444 54.4298 28.1921ZM50.7278 24.6239C50.4566 23.9512 49.9819 23.5148 49.2497 23.2603C48.4971 23.0148 47.1636 22.8739 44.8357 22.8353C42.5078 22.8739 41.1834 23.0148 40.4217 23.2603C39.694 23.5148 39.2239 23.9512 38.9481 24.6239C38.7312 25.1376 38.4826 26.3876 38.4826 28.1921C38.4826 29.9967 38.7312 31.2489 38.9481 31.7626C39.2239 32.4353 39.6917 32.8671 40.4217 33.1239C41.1834 33.3717 42.5078 33.5171 44.8357 33.5489C47.1636 33.5148 48.4971 33.3717 49.2497 33.1239C49.9819 32.8671 50.4566 32.4353 50.7278 31.7626C50.9448 31.2512 51.1911 29.9989 51.1911 28.1921C51.1911 26.3853 50.9448 25.1376 50.7278 24.6239Z" fill="#0061AF"/>
<path id="Vector_5" d="M110.014 28.1921C110.014 30.0421 109.801 31.5557 109.381 32.6921C108.954 33.8739 107.498 36.5467 100.426 36.5467C93.3543 36.5467 91.8943 33.8739 91.4671 32.6921C91.049 31.5557 90.832 30.0421 90.832 28.1921C90.832 26.3421 91.049 24.8239 91.4671 23.6898C91.8943 22.508 93.3498 19.8398 100.426 19.8398C107.503 19.8398 108.956 22.508 109.381 23.6898C109.801 24.8239 110.014 26.3444 110.014 28.1921ZM106.309 24.6239C106.04 23.9512 105.568 23.5148 104.836 23.2603C104.078 23.0148 102.745 22.8739 100.424 22.8353C98.0915 22.8739 96.7625 23.0148 96.0054 23.2603C95.2777 23.5148 94.8053 23.9512 94.5318 24.6239C94.3171 25.1376 94.0685 26.3876 94.0685 28.1921C94.0685 29.9967 94.3171 31.2489 94.5318 31.7626C94.8053 32.4353 95.2777 32.8671 96.0054 33.1239C96.7625 33.3717 98.0915 33.5171 100.424 33.5489C102.745 33.5148 104.078 33.3717 104.836 33.1239C105.566 32.8671 106.04 32.4353 106.309 31.7626C106.528 31.2512 106.773 29.9989 106.773 28.1921C106.773 26.3853 106.526 25.1376 106.309 24.6239Z" fill="#ED1C24"/>
<path id="Vector_6" d="M32.8986 24.0422C32.7088 23.2399 32.3788 22.5649 31.8748 21.9808H31.8703C31.1832 21.2036 30.304 20.6876 29.1875 20.4013C28.1547 20.1263 26.6653 19.9945 24.5701 19.9945C22.2874 19.9945 20.7393 20.1763 19.6951 20.5785H19.6906C18.8295 20.8945 18.1108 21.4808 17.5819 22.2831C16.9626 21.4422 16.1987 20.8649 15.2472 20.5399C14.1624 20.1695 12.1509 19.9922 9.6128 19.9922C7.70076 19.9922 6.39216 20.1263 5.60338 20.4081H5.59886C5.00671 20.6399 4.43717 21.024 3.87892 21.5695V20.7695H0.945312V36.3035H3.86988V26.4399C3.86988 23.8626 6.45318 22.8445 9.0636 22.8445H10.3745C12.9804 22.8445 15.5953 23.8626 15.5953 26.4399V36.3035H18.5176V26.4399C18.5176 23.8626 21.0715 22.8445 23.6819 22.8445H24.9928C27.5987 22.8445 30.2159 23.8626 30.2159 26.4399V36.3035H33.1382V27.8308C33.1382 25.9081 33.0659 24.7376 32.9009 24.0354" fill="#0061AF"/>
<path id="Vector_7" d="M149.216 29.3262H150.712C150.735 28.9626 150.744 28.5853 150.744 28.1921C150.744 26.3444 150.534 24.8239 150.109 23.6898C149.682 22.508 148.226 19.8398 141.154 19.8398C134.083 19.8398 132.622 22.508 132.198 23.6898C131.779 24.8239 131.562 26.3444 131.562 28.1921C131.562 30.0398 131.779 31.5557 132.198 32.6921C132.625 33.8739 134.08 36.5467 141.154 36.5467C148.228 36.5467 149.684 33.8739 150.109 32.6921C150.147 32.5898 150.181 32.4808 150.217 32.3717H146.685C146.414 32.708 146.047 32.9558 145.571 33.1217C144.811 33.3694 143.482 33.5148 141.154 33.5467C138.829 33.5126 137.495 33.3694 136.738 33.1217C136.008 32.8648 135.536 32.433 135.262 31.7603C135.093 31.3671 134.912 30.533 134.837 29.3421H149.212V29.3239L149.216 29.3262ZM136.74 23.2603C137.498 23.0148 138.829 22.8739 141.157 22.8353C143.482 22.8739 144.813 23.0126 145.573 23.2603C146.303 23.5148 146.775 23.9512 147.049 24.6239C147.187 24.9603 147.34 25.6126 147.431 26.5308H134.88C134.971 25.6126 135.124 24.9603 135.265 24.6239C135.538 23.9512 136.008 23.5148 136.74 23.2603Z" fill="#ED1C24"/>
<path id="Vector_8" d="M79.9714 19.9766H77.0469V36.3129H79.9714V19.9766Z" fill="#0061AF"/>
<path id="Vector_9" d="M74.3433 23.6915C73.9207 22.5097 72.4607 19.8392 65.3911 19.8392C62.6812 19.8392 60.8031 20.2324 59.4809 20.7756V12.5938H56.5586V36.3506H59.4809V35.6028C60.8031 36.1506 62.6789 36.5438 65.3911 36.5438C72.4584 36.5438 73.9207 33.871 74.3433 32.6892C74.7682 31.5528 74.9829 30.0392 74.9829 28.1892C74.9829 26.3392 74.766 24.8233 74.3433 23.6892M71.2809 31.7574C71.0052 32.4301 70.5351 32.8642 69.8028 33.1187C69.0434 33.3642 67.7144 33.5119 65.3911 33.5437C63.0609 33.5119 62.1456 33.3665 61.3907 33.1187C60.6562 32.8642 60.1861 32.4301 59.9126 31.7574C59.7431 31.3483 59.5532 30.4847 59.4809 29.2483V27.1278C59.5532 25.8938 59.7431 25.0256 59.9126 24.6188C60.1861 23.946 60.6562 23.5097 61.3907 23.2574C62.1456 23.0074 63.0609 22.8688 65.3911 22.8301C67.7144 22.8688 69.0434 23.0074 69.8028 23.2574C70.5328 23.5097 71.0052 23.946 71.2809 24.6188C71.4956 25.1301 71.7397 26.3824 71.7397 28.1869C71.7397 29.9915 71.4956 31.2438 71.2809 31.7574Z" fill="#0061AF"/>
</g>
</svg>
